HIERARCHY
ROOT Hips
{
	OFFSET -0.001795 -0.223333 0.028219
	CHANNELS 6 Xposition Yposition Zposition Zrotation Yrotation Xrotation
	JOINT LeftUpLeg
	{
		OFFSET 0.069520 -0.091406 -0.006815
		CHANNELS 3 Zrotation Yrotation Xrotation
		JOINT LeftLeg
		{
			OFFSET 0.034277 -0.375199 -0.004496
			CHANNELS 3 Zrotation Yrotation Xrotation
			JOINT LeftFoot
			{
				OFFSET -0.013596 -0.397961 -0.043693
				CHANNELS 3 Zrotation Yrotation Xrotation
				JOINT LeftToe
				{
					OFFSET 0.026358 -0.055791 0.119288
					CHANNELS 3 Zrotation Yrotation Xrotation
					End Site
					{
						OFFSET 0.000000 0.000000 0.000000
					}
				}
			}
		}
	}
	JOINT RightUpLeg
	{
		OFFSET -0.067670 -0.090522 -0.004320
		CHANNELS 3 Zrotation Yrotation Xrotation
		JOINT RightLeg
		{
			OFFSET -0.038290 -0.382569 -0.008850
			CHANNELS 3 Zrotation Yrotation Xrotation
			JOINT RightFoot
			{
				OFFSET 0.015774 -0.398415 -0.042312
				CHANNELS 3 Zrotation Yrotation Xrotation
				JOINT RightToe
				{
					OFFSET -0.025372 -0.048144 0.123348
					CHANNELS 3 Zrotation Yrotation Xrotation
					End Site
					{
						OFFSET 0.000000 0.000000 0.000000
					}
				}
			}
		}
	}
	JOINT Spine
	{
		OFFSET -0.002533 0.108963 -0.026696
		CHANNELS 3 Zrotation Yrotation Xrotation
		JOINT Spine1
		{
			OFFSET 0.005487 0.135180 0.001092
			CHANNELS 3 Zrotation Yrotation Xrotation
			JOINT Spine2
			{
				OFFSET 0.001457 0.052922 0.025425
				CHANNELS 3 Zrotation Yrotation Xrotation
				JOINT Neck
				{
					OFFSET -0.002778 0.213870 -0.042857
					CHANNELS 3 Zrotation Yrotation Xrotation
					JOINT Head
					{
						OFFSET 0.005152 0.064970 0.051349
						CHANNELS 3 Zrotation Yrotation Xrotation
						End Site
						{
							OFFSET 0.000000 0.000000 0.000000
						}
					}
				}
				JOINT LeftShoulder
				{
					OFFSET 0.078845 0.121749 -0.034090
					CHANNELS 3 Zrotation Yrotation Xrotation
					JOINT LeftArm
					{
						OFFSET 0.090977 0.030469 -0.008868
						CHANNELS 3 Zrotation Yrotation Xrotation
						JOINT LeftForeArm
						{
							OFFSET 0.259612 -0.012772 -0.027456
							CHANNELS 3 Zrotation Yrotation Xrotation
							JOINT LeftHand
							{
								OFFSET 0.249234 0.008986 -0.001171
								CHANNELS 3 Zrotation Yrotation Xrotation
								End Site
								{
									OFFSET 0.000000 0.000000 0.000000
								}
							}
						}
					}
				}
				JOINT RightShoulder
				{
					OFFSET -0.081759 0.118833 -0.038615
					CHANNELS 3 Zrotation Yrotation Xrotation
					JOINT RightArm
					{
						OFFSET -0.096012 0.032551 -0.009143
						CHANNELS 3 Zrotation Yrotation Xrotation
						JOINT RightForeArm
						{
							OFFSET -0.253742 -0.013329 -0.021401
							CHANNELS 3 Zrotation Yrotation Xrotation
							JOINT RightHand
							{
								OFFSET -0.255298 0.007772 -0.005559
								CHANNELS 3 Zrotation Yrotation Xrotation
								End Site
								{
									OFFSET 0.000000 0.000000 0.000000
								}
							}
						}
					}
				}
			}
		}
	}
}
MOTION
Frames: 14
Frame Time: 0.050000
0.000000 0.103651 0.000000 -3.570190 -18.314297 -70.391597 17.753181 12.275639 -62.226135 10.645067 -43.986164 130.889265 10.349901 -24.442091 -50.407911 0.000000 0.000000 0.000000 -27.533247 -3.325809 -54.983094 10.281445 -0.137375 140.432095 -5.506221 7.897664 -42.728294 0.000000 0.000000 0.000000 -57.912810 -56.673410 -100.955473 3.349916 35.285783 146.290008 161.341762 53.193038 -174.286659 -52.359621 32.764332 78.054130 0.000000 0.000000 0.000000 -8.898143 -11.120915 -26.028090 59.148856 33.618622 17.452826 -148.746902 -6.204681 25.089005 0.000000 0.000000 0.000000 35.672186 -18.944372 20.296769 -16.070888 -35.633004 10.007714 170.722654 57.991430 144.171158 0.000000 0.000000 0.000000
0.002123 0.089815 -0.002162 -3.481401 -21.107136 -75.456269 12.320608 10.050900 -65.506438 33.156062 -59.774987 108.640154 1.838430 -43.113576 -32.614290 0.000000 0.000000 0.000000 -30.463509 -3.749928 -57.950730 15.992549 -15.228086 134.852810 -4.450885 0.508654 -37.032463 0.000000 0.000000 0.000000 -35.617809 -29.072749 -112.226104 0.289908 10.649371 149.745116 48.878802 65.967027 68.261097 -29.849233 1.405893 81.244090 0.000000 0.000000 0.000000 -3.375941 -6.691281 -0.102410 32.457509 38.031347 5.946977 -160.288152 -3.714568 12.798808 0.000000 0.000000 0.000000 12.410925 -14.978913 -7.575616 -36.518881 -25.411248 22.387588 136.054347 32.350836 77.597864 0.000000 0.000000 0.000000
0.004411 0.075920 -0.003252 -1.053809 -17.131345 -81.828628 11.371413 7.057803 -59.569530 32.268052 -49.525316 101.315106 4.381937 -40.970876 -37.548555 0.000000 0.000000 0.000000 -28.838155 -4.241464 -55.602319 20.443983 -17.523022 125.383440 -5.085838 -11.649988 -38.158192 0.000000 0.000000 0.000000 -18.226148 -1.137132 -93.250322 -3.449587 -18.497951 142.598411 -4.183982 12.873526 18.044008 -13.288878 -24.729736 85.437102 0.000000 0.000000 0.000000 -12.042504 -7.655798 1.321835 31.929171 24.171762 8.344494 179.726598 -7.112234 -115.589248 0.000000 0.000000 0.000000 7.256253 -11.352371 -4.194957 -32.448563 -15.337064 9.369620 136.743441 50.703812 89.693852 0.000000 0.000000 0.000000
0.006795 0.072758 -0.005777 1.557565 -17.755705 -84.479867 11.196631 7.586681 -57.554130 28.282730 -41.259978 99.115587 -2.471374 -42.042338 -25.406939 0.000000 0.000000 0.000000 -29.425766 -3.811998 -54.624428 28.361756 -22.294580 110.697427 -6.522978 -21.679429 -26.362174 0.000000 0.000000 0.000000 -9.593348 9.912290 -79.673641 -0.643715 -27.015538 131.765320 -10.157602 -3.324215 3.322908 -3.480241 -35.361683 68.033325 0.000000 0.000000 0.000000 -14.635205 -11.446488 3.616025 26.394594 11.831505 5.937051 155.566432 -16.454513 -73.954294 0.000000 0.000000 0.000000 3.704341 -8.041882 -2.238350 -24.638632 -6.250505 4.826912 -78.722786 82.590885 -79.239010 0.000000 0.000000 0.000000
0.009268 0.073120 -0.009258 2.555591 -17.862345 -87.383311 13.164406 7.900579 -49.485671 22.550673 -29.396539 91.600233 -2.819734 -37.357646 -26.822019 0.000000 0.000000 0.000000 -25.478918 -2.401712 -49.627980 29.489900 -16.040301 96.776115 -9.521683 -25.333950 -9.532329 0.000000 0.000000 0.000000 0.657867 15.508063 -61.919821 4.952770 -27.740572 116.133431 -11.203196 -14.561581 -16.207143 6.307819 -39.133054 61.754802 0.000000 0.000000 0.000000 -19.051895 -18.215631 8.558729 7.580198 10.282600 2.089017 146.473792 -30.245880 -84.614572 0.000000 0.000000 0.000000 0.451239 1.380173 1.130103 -3.694247 2.903129 0.599532 -73.006954 47.643917 -39.837909 0.000000 0.000000 0.000000
0.010841 0.070661 -0.014177 4.222828 -18.102348 -89.010861 13.167469 7.571251 -44.521358 21.435587 -21.785303 80.845153 -20.154877 -25.341226 11.581463 0.000000 0.000000 0.000000 -23.228928 -1.336417 -47.280343 27.701575 -10.641972 91.526077 -8.339237 -20.193712 -1.567624 0.000000 0.000000 0.000000 5.289141 17.378273 -54.608248 8.169334 -24.781403 104.885892 -10.890051 -17.980308 -14.286577 13.237138 -35.188211 45.441920 0.000000 0.000000 0.000000 -23.484492 -17.511954 10.448013 -8.152736 3.758565 -1.609579 143.789404 -37.531194 -87.763112 0.000000 0.000000 0.000000 2.639604 3.543911 1.547153 9.146674 12.814234 -0.278278 -84.149250 41.875165 -41.747844 0.000000 0.000000 0.000000
0.011625 0.075892 -0.020068 4.682671 -17.010148 -89.007203 12.158539 5.510488 -36.738995 17.031058 -13.275528 67.456392 -17.500785 -13.627587 22.448641 0.000000 0.000000 0.000000 -19.272246 -0.575451 -41.685828 23.303019 -4.813021 80.012899 -6.576860 -15.685522 3.701931 0.000000 0.000000 0.000000 7.781395 15.296488 -47.168752 10.865116 -17.342377 84.689397 -11.745289 -15.690219 -7.727885 15.412030 -29.864943 37.279917 0.000000 0.000000 0.000000 -28.027882 -19.576456 13.826287 -20.360978 -0.850683 -3.615556 140.335339 -54.155915 -100.862038 0.000000 0.000000 0.000000 6.004642 6.208708 1.837223 23.976648 18.898911 -0.062358 -88.846754 48.706084 -47.180613 0.000000 0.000000 0.000000
0.011503 0.080948 -0.025601 3.392235 -17.306815 -86.743449 11.319394 4.690082 -35.097881 12.990776 -8.982833 59.122752 -15.498904 -9.483531 25.904103 0.000000 0.000000 0.000000 -18.395962 -0.681557 -37.996700 20.594510 -2.929432 69.234872 -5.767341 -13.966485 5.001736 0.000000 0.000000 0.000000 6.840229 12.790238 -43.514346 10.613904 -12.632818 74.215432 -8.803726 -11.718257 -5.706748 16.761264 -26.915231 30.956581 0.000000 0.000000 0.000000 -31.857086 -22.155048 16.798989 -26.835733 -2.472716 -4.236894 118.387506 -67.635786 -88.339807 0.000000 0.000000 0.000000 11.527632 8.110298 2.107601 31.213455 18.853622 0.282798 -81.108031 56.888842 -46.484121 0.000000 0.000000 0.000000
0.011497 0.085463 -0.028924 3.180678 -17.891857 -86.395215 11.806193 4.566965 -30.652238 10.865690 -6.469599 49.584267 -14.856377 -6.624083 31.345127 0.000000 0.000000 0.000000 -14.689665 0.174070 -33.154236 17.594940 -1.440762 56.999249 -4.985136 -14.542759 14.455447 0.000000 0.000000 0.000000 8.591470 12.380778 -38.853717 10.215564 -9.290012 61.372361 -9.846896 -9.593491 0.799651 15.430567 -23.222897 27.657731 0.000000 0.000000 0.000000 -31.309445 -23.480119 17.890855 -30.613570 -3.925605 -4.518062 77.637262 -72.265701 -53.553581 0.000000 0.000000 0.000000 15.335406 7.980943 1.983595 35.973614 17.351282 -0.201355 -63.686959 63.995367 -37.951818 0.000000 0.000000 0.000000
0.011932 0.086066 -0.030668 3.857239 -17.190899 -86.484039 11.332690 4.006266 -27.237213 9.172120 -4.964799 44.024412 -12.505927 -4.875128 30.330801 0.000000 0.000000 0.000000 -13.793496 -0.232436 -27.636575 16.593462 -1.534083 43.632981 -2.633877 -13.305299 22.185920 0.000000 0.000000 0.000000 9.253291 11.908113 -36.486874 6.947992 -4.218985 54.132867 -6.422119 -8.372787 5.575020 12.622444 -18.479183 25.328220 0.000000 0.000000 0.000000 -32.508466 -21.230413 17.338664 -31.386800 -6.097283 -4.526252 45.956760 -72.206044 -27.674680 0.000000 0.000000 0.000000 18.531511 10.359143 3.195765 39.033765 16.414474 -0.641492 -40.966313 63.390312 -21.536822 0.000000 0.000000 0.000000
0.012698 0.087217 -0.030741 3.184016 -16.113056 -85.350301 9.250317 2.746506 -25.487949 8.400391 -4.290884 39.128196 -10.439253 -3.957338 27.449479 0.000000 0.000000 0.000000 -13.312085 -0.506958 -24.757781 15.241208 -1.638396 35.701571 -1.314280 -12.427775 24.974779 0.000000 0.000000 0.000000 7.517217 10.823374 -38.181369 4.955858 -2.399489 46.970417 -3.239487 -6.972351 13.340813 10.756936 -14.471771 18.066668 0.000000 0.000000 0.000000 -29.221960 -22.156273 17.600789 -35.454517 -10.167734 -4.529472 32.840222 -66.961925 -15.969012 0.000000 0.000000 0.000000 16.940909 11.290450 3.703628 44.063373 17.331456 -1.141010 -26.631865 61.705499 -12.077793 0.000000 0.000000 0.000000
0.012940 0.086939 -0.029816 2.510685 -16.227876 -84.931923 8.569202 2.296902 -23.134367 8.805932 -4.069867 32.432948 -11.391680 -3.388589 31.781360 0.000000 0.000000 0.000000 -10.571826 0.077911 -22.333233 11.957902 -0.871155 31.532953 -0.516205 -12.022117 27.237975 0.000000 0.000000 0.000000 7.772609 10.522843 -37.318450 3.984967 -1.773430 37.061711 -4.020077 -5.920828 20.663751 12.715514 -15.500833 10.875491 0.000000 0.000000 0.000000 -25.263535 -22.932255 16.990943 -39.302929 -11.446607 -4.756317 20.823309 -65.192275 -7.702926 0.000000 0.000000 0.000000 19.116088 10.091992 3.069286 46.119259 16.627884 -2.002911 -15.174287 57.172561 -4.726088 0.000000 0.000000 0.000000
0.012936 0.082459 -0.028685 2.120024 -14.980564 -85.269247 7.576166 1.701653 -20.371427 7.274971 -3.224156 27.519084 -9.787840 -1.963481 31.466706 0.000000 0.000000 0.000000 -9.210991 0.174502 -20.579817 8.371576 -0.016137 29.030054 -0.403219 -11.823847 27.675267 0.000000 0.000000 0.000000 6.412328 9.109436 -36.834219 2.280718 -0.698051 30.073439 -2.039715 -3.928447 27.050315 11.164951 -13.189294 6.490276 0.000000 0.000000 0.000000 -20.759722 -22.295031 15.047910 -44.599007 -13.903284 -4.636688 11.766394 -62.794038 -1.581500 0.000000 0.000000 0.000000 18.974904 9.215954 3.011560 48.471598 15.504037 -3.205441 -7.493476 56.327439 -0.405945 0.000000 0.000000 0.000000
0.012801 0.079997 -0.028291 1.528482 -14.268772 -84.615903 6.951749 1.341681 -18.576667 7.005750 -2.867916 22.866561 -8.420953 -0.319950 32.432922 0.000000 0.000000 0.000000 -8.208125 0.245253 -18.841953 6.558335 0.187927 25.526437 -0.084611 -11.526180 28.267683 0.000000 0.000000 0.000000 5.392698 8.034189 -36.475309 1.572804 -0.420629 24.624858 -1.235694 -2.488547 30.022364 11.612950 -12.337601 0.521916 0.000000 0.000000 0.000000 -17.645945 -21.603615 13.581017 -47.852655 -14.363802 -4.630582 6.827925 -60.068077 1.335927 0.000000 0.000000 0.000000 19.329881 8.543874 2.869935 50.116279 13.628864 -4.109288 -0.924107 51.915970 2.664429 0.000000 0.000000 0.000000
